<svg width="98" height="98" viewBox="0 0 98 98" fill="none" xmlns="http://www.w3.org/2000/svg">
<path d="M89.2447 76.2803C74.3211 98.6637 44.0778 104.711 21.6944 89.7874C-0.689007 74.8638 -6.73634 44.6205 8.18728 22.2371C23.1109 -0.146282 53.3542 -6.19361 75.7376 8.73C98.121 23.6536 104.168 53.8969 89.2447 76.2803Z" fill="white"/>
<path d="M48.6345 2.02534C59.9878 2.05783 70.9456 6.19883 79.4829 13.6831C88.0201 21.1673 93.5597 31.4889 95.0779 42.7402C96.5961 53.9916 93.9902 65.4123 87.7419 74.8916C81.4936 84.3709 72.0252 91.268 61.0865 94.3085C50.1479 97.3489 38.4784 96.327 28.2346 91.4317C17.9909 86.5364 9.86535 78.0985 5.35966 67.6775C0.853983 57.2565 0.272735 45.5568 3.72334 34.7405C7.17394 23.9242 14.4231 14.7226 24.1312 8.83605" stroke="#40DDB6" stroke-width="3" stroke-linecap="round" stroke-linejoin="round"/>
<path d="M28.45 47.1261C26.8124 46.2745 25.9936 44.9563 25.9936 43.1713C25.9936 42.287 26.2147 41.4846 26.6569 40.764C27.1154 40.0271 27.795 39.4458 28.6957 39.02C29.6127 38.5779 30.7263 38.3568 32.0363 38.3568C33.3464 38.3568 34.4518 38.5779 35.3524 39.02C36.2695 39.4458 36.9491 40.0271 37.3912 40.764C37.8498 41.4846 38.079 42.287 38.079 43.1713C38.079 44.072 37.8579 44.8662 37.4158 45.554C36.9736 46.2254 36.3841 46.7494 35.6472 47.1261C36.5479 47.5191 37.252 48.0922 37.7597 48.8455C38.2673 49.5988 38.5212 50.4913 38.5212 51.523C38.5212 52.6365 38.2346 53.6109 37.6614 54.4461C37.1047 55.2648 36.335 55.8953 35.3524 56.3375C34.3699 56.7796 33.2645 57.0007 32.0363 57.0007C30.8081 57.0007 29.7028 56.7796 28.7202 56.3375C27.7541 55.8953 26.9844 55.2648 26.4112 54.4461C25.8545 53.6109 25.5761 52.6365 25.5761 51.523C25.5761 50.4913 25.8299 49.5988 26.3375 48.8455C26.8452 48.0759 27.5494 47.5027 28.45 47.1261ZM34.7383 43.6626C34.7383 42.8601 34.4927 42.2379 34.0014 41.7957C33.5265 41.3536 32.8715 41.1325 32.0363 41.1325C31.2175 41.1325 30.5625 41.3536 30.0712 41.7957C29.5963 42.2379 29.3589 42.8683 29.3589 43.6871C29.3589 44.424 29.6045 45.0136 30.0958 45.4557C30.6034 45.8979 31.2503 46.1189 32.0363 46.1189C32.8224 46.1189 33.4692 45.8979 33.9769 45.4557C34.4845 44.9972 34.7383 44.3995 34.7383 43.6626ZM32.0363 48.6244C31.1029 48.6244 30.3414 48.8619 29.7519 49.3368C29.1788 49.8117 28.8922 50.4913 28.8922 51.3756C28.8922 52.1944 29.1706 52.8658 29.7273 53.3898C30.3005 53.8975 31.0702 54.1513 32.0363 54.1513C33.0025 54.1513 33.764 53.8893 34.3208 53.3652C34.8775 52.8412 35.1559 52.178 35.1559 51.3756C35.1559 50.5077 34.8694 49.8363 34.2962 49.3614C33.723 48.8701 32.9698 48.6244 32.0363 48.6244ZM53.2736 41.6729H45.315V45.8733C45.6589 45.4475 46.1501 45.1036 46.7888 44.8416C47.4274 44.5632 48.107 44.424 48.8276 44.424C50.1376 44.424 51.2103 44.7106 52.0454 45.2838C52.8806 45.8569 53.4865 46.5938 53.8632 47.4945C54.2398 48.3788 54.4281 49.3286 54.4281 50.3439C54.4281 52.2271 53.8877 53.7419 52.8069 54.8882C51.7425 56.0345 50.2195 56.6077 48.2381 56.6077C46.3712 56.6077 44.881 56.141 43.7674 55.2075C42.6539 54.2741 42.0234 53.0541 41.876 51.5475H45.2167C45.3641 52.2026 45.6916 52.7266 46.1993 53.1196C46.7233 53.5126 47.3865 53.7091 48.1889 53.7091C49.1551 53.7091 49.8838 53.4062 50.3751 52.8003C50.8664 52.1944 51.112 51.392 51.112 50.393C51.112 49.3777 50.8582 48.6081 50.3505 48.084C49.8593 47.5436 49.1305 47.2734 48.1644 47.2734C47.4766 47.2734 46.9034 47.4454 46.4449 47.7893C45.9864 48.1332 45.6589 48.5917 45.4623 49.1648H42.1708V38.6516H53.2736V41.6729ZM56.6525 43.0976C56.6525 41.853 57.0127 40.8787 57.7333 40.1745C58.4702 39.4703 59.4118 39.1183 60.5581 39.1183C61.7044 39.1183 62.6379 39.4703 63.3584 40.1745C64.0953 40.8787 64.4638 41.853 64.4638 43.0976C64.4638 44.3585 64.0953 45.3411 63.3584 46.0452C62.6379 46.7494 61.7044 47.1015 60.5581 47.1015C59.4118 47.1015 58.4702 46.7494 57.7333 46.0452C57.0127 45.3411 56.6525 44.3585 56.6525 43.0976ZM72.4224 39.413L62.7689 56.6077H59.4282L69.0572 39.413H72.4224ZM60.5336 41.1816C59.6329 41.1816 59.1825 41.8203 59.1825 43.0976C59.1825 44.3913 59.6329 45.0381 60.5336 45.0381C60.9757 45.0381 61.3196 44.8826 61.5652 44.5714C61.8109 44.2439 61.9337 43.7526 61.9337 43.0976C61.9337 41.8203 61.467 41.1816 60.5336 41.1816ZM67.436 52.8985C67.436 51.6376 67.7962 50.6632 68.5168 49.9755C69.2537 49.2713 70.1953 48.9192 71.3416 48.9192C72.4879 48.9192 73.4132 49.2713 74.1173 49.9755C74.8379 50.6632 75.1981 51.6376 75.1981 52.8985C75.1981 54.1595 74.8379 55.142 74.1173 55.8462C73.4132 56.5504 72.4879 56.9024 71.3416 56.9024C70.1789 56.9024 69.2373 56.5504 68.5168 55.8462C67.7962 55.142 67.436 54.1595 67.436 52.8985ZM71.317 50.9826C70.3836 50.9826 69.9169 51.6212 69.9169 52.8985C69.9169 54.1922 70.3836 54.8391 71.317 54.8391C72.2341 54.8391 72.6926 54.1922 72.6926 52.8985C72.6926 51.6212 72.2341 50.9826 71.317 50.9826Z" fill="#37393F"/>
</svg>
