<svg width="98" height="98" viewBox="0 0 98 98" fill="none" xmlns="http://www.w3.org/2000/svg">
<path d="M89.2447 75.7886C74.3211 98.172 44.0778 104.219 21.6944 89.2957C-0.689007 74.3721 -6.73634 44.1288 8.18728 21.7454C23.1109 -0.637981 53.3542 -6.68531 75.7376 8.23831C98.121 23.1619 104.168 53.4052 89.2447 75.7886Z" fill="white"/>
<path d="M47.2817 1.53264C59.2521 1.22225 70.8896 5.49253 79.8183 13.4716C88.7469 21.4508 94.2933 32.5369 95.3252 44.4668C96.357 56.3967 92.7965 68.2706 85.3704 77.6642C77.9444 87.0579 67.213 93.2629 55.367 95.0125C43.5211 96.762 31.4541 93.9242 21.6296 87.0783C11.8051 80.2324 4.96411 69.8947 2.50323 58.1759C0.0423479 46.4571 2.1472 34.2408 8.38804 24.0213C14.6289 13.8018 24.5351 6.34969 36.0841 3.18644" stroke="#40DDB6" stroke-width="3" stroke-linecap="round" stroke-linejoin="round"/>
<path d="M29.4336 51.0806C29.5646 51.8012 29.8593 52.358 30.3178 52.751C30.7927 53.1276 31.4232 53.3159 32.2093 53.3159C33.2246 53.3159 33.9615 52.8984 34.42 52.0632C34.8785 51.2116 35.1078 49.7869 35.1078 47.7891C34.7311 48.3131 34.1989 48.7225 33.5111 49.0173C32.8397 49.312 32.111 49.4594 31.325 49.4594C30.2769 49.4594 29.3271 49.2465 28.4756 48.8208C27.6404 48.3786 26.9772 47.7318 26.4859 46.8802C25.9946 46.0123 25.749 44.9643 25.749 43.7361C25.749 41.9184 26.2894 40.4773 27.3702 39.4129C28.451 38.332 29.9248 37.7916 31.7917 37.7916C34.117 37.7916 35.7546 38.5367 36.7044 40.0269C37.6706 41.5171 38.1537 43.7606 38.1537 46.7574C38.1537 48.8863 37.9654 50.6303 37.5887 51.9895C37.2285 53.3487 36.598 54.3804 35.6973 55.0845C34.813 55.7887 33.6012 56.1408 32.0619 56.1408C30.8501 56.1408 29.8184 55.9115 28.9668 55.453C28.1153 54.9781 27.4603 54.364 27.0017 53.6107C26.5596 52.841 26.3058 51.9977 26.2403 51.0806H29.4336ZM32.0373 46.6592C32.8889 46.6592 33.5603 46.3971 34.0515 45.8731C34.5428 45.3491 34.7885 44.6449 34.7885 43.7606C34.7885 42.7945 34.5264 42.0494 34.0024 41.5253C33.4948 40.9849 32.7988 40.7147 31.9145 40.7147C31.0302 40.7147 30.326 40.9931 29.802 41.5499C29.2944 42.0903 29.0405 42.8108 29.0405 43.7115C29.0405 44.5794 29.2862 45.2918 29.7774 45.8486C30.2851 46.389 31.0384 46.6592 32.0373 46.6592ZM52.8668 41.1814H44.9081V45.3818C45.252 44.9561 45.7433 44.6122 46.382 44.3502C47.0206 44.0718 47.7002 43.9326 48.4208 43.9326C49.7308 43.9326 50.8034 44.2192 51.6386 44.7923C52.4738 45.3655 53.0797 46.1024 53.4563 47.0031C53.833 47.8874 54.0213 48.8372 54.0213 49.8525C54.0213 51.7357 53.4809 53.2504 52.4001 54.3967C51.3357 55.5431 49.8127 56.1162 47.8312 56.1162C45.9644 56.1162 44.4742 55.6495 43.3606 54.7161C42.2471 53.7827 41.6166 52.5627 41.4692 51.0561H44.8099C44.9573 51.7111 45.2848 52.2351 45.7924 52.6282C46.3165 53.0212 46.9797 53.2177 47.7821 53.2177C48.7483 53.2177 49.477 52.9147 49.9683 52.3088C50.4596 51.7029 50.7052 50.9005 50.7052 49.9016C50.7052 48.8863 50.4514 48.1166 49.9437 47.5926C49.4524 47.0522 48.7237 46.782 47.7575 46.782C47.0698 46.782 46.4966 46.9539 46.0381 47.2978C45.5796 47.6417 45.252 48.1002 45.0555 48.6734H41.764V38.1601H52.8668V41.1814ZM56.2457 42.6061C56.2457 41.3616 56.6059 40.3872 57.3265 39.6831C58.0634 38.9789 59.005 38.6268 60.1513 38.6268C61.2976 38.6268 62.231 38.9789 62.9516 39.6831C63.6885 40.3872 64.0569 41.3616 64.0569 42.6061C64.0569 43.8671 63.6885 44.8496 62.9516 45.5538C62.231 46.258 61.2976 46.61 60.1513 46.61C59.005 46.61 58.0634 46.258 57.3265 45.5538C56.6059 44.8496 56.2457 43.8671 56.2457 42.6061ZM72.0156 38.9216L62.362 56.1162H59.0214L68.6504 38.9216H72.0156ZM60.1267 40.6902C59.2261 40.6902 58.7757 41.3288 58.7757 42.6061C58.7757 43.8998 59.2261 44.5467 60.1267 44.5467C60.5689 44.5467 60.9128 44.3911 61.1584 44.08C61.4041 43.7525 61.5269 43.2612 61.5269 42.6061C61.5269 41.3288 61.0602 40.6902 60.1267 40.6902ZM67.0292 52.4071C67.0292 51.1461 67.3894 50.1718 68.11 49.484C68.8469 48.7798 69.7885 48.4278 70.9348 48.4278C72.0811 48.4278 73.0063 48.7798 73.7105 49.484C74.431 50.1718 74.7913 51.1461 74.7913 52.4071C74.7913 53.668 74.431 54.6506 73.7105 55.3547C73.0063 56.0589 72.0811 56.411 70.9348 56.411C69.7721 56.411 68.8305 56.0589 68.11 55.3547C67.3894 54.6506 67.0292 53.668 67.0292 52.4071ZM70.9102 50.4911C69.9768 50.4911 69.5101 51.1298 69.5101 52.4071C69.5101 53.7008 69.9768 54.3476 70.9102 54.3476C71.8273 54.3476 72.2858 53.7008 72.2858 52.4071C72.2858 51.1298 71.8273 50.4911 70.9102 50.4911Z" fill="#37393F"/>
</svg>
