<svg xmlns="http://www.w3.org/2000/svg" width="37mm" height="37mm" viewBox="0 0 37 37"><path d="M242.253 28.901V31.94h-3.039v1.012h2.026v1.013h-2.026v1.013h-1.012v2.026h1.012v2.026h1.013v1.013h2.026v1.012h-1.013v1.013h-1.013v1.013h-1.013v1.013h-1.012v2.026h-1.013v5.064h1.013v2.026h1.012v1.013h-1.012v3.038h1.012v2.026h-2.025v2.026h6.077v-6.077h1.013v-1.013h2.026v1.013h1.012v6.077h6.078v-2.026h-2.026v-2.026h1.013v-3.038h-1.013V53.21h1.013v-2.026h1.013V46.12h-1.013v-2.026h-1.013v-1.013h-1.013v-1.013h-1.013v-2.025h1.013V39.03h2.026V35.99h-1.013v-2.026h-1.013v-3.038h-1.013v-1.013h-2.026V28.9z" style="fill:#000;fill-opacity:.203343;stroke:none;stroke-width:.382821;stroke-linecap:round;stroke-linejoin:round;stroke-miterlimit:2;stroke-dasharray:none;stroke-opacity:1" transform="translate(-225.95 -25.685)"/><path d="M243.266 31.94v1.013h-1.013v1.012h2.026V31.94zm3.039 0v2.025h-1.013v2.026h2.025v-3.038h2.026V31.94h-2.026zm3.038 1.013v4.051h-1.013v1.013h-1.013v1.013h2.026v-1.013h2.026V34.978h-1.013v-2.025zm-8.103 2.025v1.013h-3.038v2.026h5.064v-1.013h1.013v-1.013h-2.026v-1.013zm0 4.052v1.013h1.013V39.03zm1.013 1.013v6.077h4.052v-6.077zm-1.013 0h-1.013v1.012h-1.013v1.013h-1.012v1.013h-1.013v2.026h-1.013v3.039h4.051v-4.052h1.013zm6.077 0v4.051h1.013v4.052h4.052v-3.039h-1.013v-2.026h-1.013v-1.013h-1.013v-1.013h-1.013v-1.012zm-9.115 16.206v2.025h-2.026V60.3h6.077V56.25Zm8.103 0V60.3h6.077v-2.026h-2.026V56.25z" style="fill:#ac7c00;fill-opacity:1;stroke-width:0;stroke-miterlimit:2" transform="translate(-225.95 -25.685)"/><path d="M241.24 27.888v1.013h1.013v1.013h1.013v1.013h-5.064v1.013h11.141v-2.026h-1.013V28.9h-2.025v-1.013zm6.077 11.142v1.013h1.013V39.03zm0 1.013h-1.012v6.077h-4.052v-6.077h-1.013v4.051h-1.013v7.09h-1.013v1.013h-1.012v1.013h-1.013V56.249h5.064v-2.026h1.013V53.21h2.026v1.013h1.013v2.026h5.064V53.21h-1.013v-1.013h-1.013v-1.013h-1.013v-7.09h-1.013zm-6.077 7.09h1.013v1.013h-1.013zm5.065 0h1.012v1.013h-1.012z" style="fill:#f83800;fill-opacity:1;stroke-width:0;stroke-miterlimit:2" transform="translate(-225.95 -25.685)"/><path d="M241.24 28.901v2.026h2.026v-1.013h-1.013V28.9zm-1.013 3.039v1.013h-2.025v1.012h-1.013v2.026h4.051v-1.013h1.013v1.013h2.026v1.013h-1.013v1.013h-4.052v1.013h3.04v1.013h5.063v-2.026h1.013v-1.013h1.013v-4.051h-2.026v3.038h-2.025v-2.026h1.013V31.94h-2.026v2.025h-2.026v-1.012h1.013V31.94zm1.013 15.193v1.013h1.013v-1.013zm5.065 0v1.013h1.012v-1.013zm-10.13 1.013v2.025h1.014v2.026h2.025v-1.013h1.013v-3.038zm12.155 0v3.038h1.013v1.013h2.026v-2.026h1.013v-2.025z" style="fill:#ffa440;fill-opacity:1;stroke-width:0;stroke-miterlimit:2" transform="translate(-225.95 -25.685)"/></svg>