<svg width="73" height="72" viewBox="0 0 73 72" fill="none" xmlns="http://www.w3.org/2000/svg">
<rect width="73" height="72" fill="#F5F5F5"/>
<g id="Homepage - 1" clip-path="url(#clip0_1_6)">
<rect width="1920" height="9954" transform="translate(-1468 -2474)" fill="white"/>
<g id="Services">
<g id="Content">
<g id="1">
<g id="3">
<rect width="385" height="173" transform="translate(-282.5 -30)" fill="#F4F4F4"/>
<g id="Content_2">
<g id="Icon">
<circle id="Ellipse 120" cx="36.5" cy="36" r="36" fill="#40DDB6"/>
<g id="Icon_2">
<path id="Vector" d="M40.4375 20.25V29.4375H49.625" stroke="white" stroke-width="2" stroke-linecap="round" stroke-linejoin="round"/>
<path id="Vector_2" d="M39.7812 36L43.7188 39.9375L39.7812 43.875" stroke="white" stroke-width="2" stroke-linecap="round" stroke-linejoin="round"/>
<path id="Vector_3" d="M33.2188 36L29.2812 39.9375L33.2188 43.875" stroke="white" stroke-width="2" stroke-linecap="round" stroke-linejoin="round"/>
<path id="Vector_4" d="M48.3125 51.75C48.6606 51.75 48.9944 51.6117 49.2406 51.3656C49.4867 51.1194 49.625 50.7856 49.625 50.4375V29.4375L40.4375 20.25H24.6875C24.3394 20.25 24.0056 20.3883 23.7594 20.6344C23.5133 20.8806 23.375 21.2144 23.375 21.5625V50.4375C23.375 50.7856 23.5133 51.1194 23.7594 51.3656C24.0056 51.6117 24.3394 51.75 24.6875 51.75H48.3125Z" stroke="white" stroke-width="2" stroke-linecap="round" stroke-linejoin="round"/>
</g>
</g>
</g>
</g>
</g>
</g>
</g>
</g>
<defs>
<clipPath id="clip0_1_6">
<rect width="1920" height="9954" fill="white" transform="translate(-1468 -2474)"/>
</clipPath>
</defs>
</svg>
