<svg width="73" height="72" viewBox="0 0 73 72" fill="none" xmlns="http://www.w3.org/2000/svg">
<circle cx="36.5" cy="36" r="36" fill="#40DDB6"/>
<path d="M41.9997 52.12H29.1597C26.8197 52.12 24.9297 50.23 24.9297 47.89V27" stroke="white" stroke-width="2" stroke-miterlimit="10"/>
<path d="M22.0801 19H43.7801C46.0501 19 47.9001 20.84 47.9001 23.12V32.39" stroke="white" stroke-width="2" stroke-miterlimit="10"/>
<path d="M24.92 26.28H19.5V21.71C19.5 20.21 20.71 19 22.21 19C23.71 19 24.92 20.21 24.92 21.71V26.28Z" stroke="white" stroke-width="2" stroke-miterlimit="10"/>
<path d="M52.8201 39.9999L51.6001 41.8199L51.1701 43.9699L49.0201 44.3999L47.2001 45.6199L45.3801 44.3999L43.2301 43.9699L42.8001 41.8199L41.5801 39.9999L42.8001 38.1799L43.2301 36.0299L45.3801 35.5999L47.2001 34.3799L49.0201 35.5999L51.1701 36.0299L51.6001 38.1799L52.8201 39.9999Z" stroke="white" stroke-width="2" stroke-miterlimit="10"/>
<path d="M50.3104 43.8501V51.3301L47.2104 49.2501L44.1104 51.3301V43.8501" stroke="white" stroke-width="2" stroke-miterlimit="10"/>
<path d="M30.5703 25.25H40.7803" stroke="white" stroke-width="2" stroke-miterlimit="10"/>
<path d="M30.5703 30.5H40.7803" stroke="white" stroke-width="2" stroke-miterlimit="10"/>
<path d="M30.5703 35.6899H40.7803" stroke="white" stroke-width="2" stroke-miterlimit="10"/>
<path d="M30.5703 40.77H37.3403" stroke="white" stroke-width="2" stroke-miterlimit="10"/>
<path d="M30.5703 45.96H37.3403" stroke="white" stroke-width="2" stroke-miterlimit="10"/>
</svg>
