<svg width="73" height="72" viewBox="0 0 73 72" fill="none" xmlns="http://www.w3.org/2000/svg">
<circle cx="36.5" cy="36" r="36" fill="#40DDB6"/>
<path d="M18.125 50.4375H54.875" stroke="white" stroke-width="2" stroke-linecap="round" stroke-linejoin="round"/>
<path d="M39.125 50.4375V21.5625C39.125 21.2144 38.9867 20.8806 38.7406 20.6344C38.4944 20.3883 38.1606 20.25 37.8125 20.25H22.0625C21.7144 20.25 21.3806 20.3883 21.1344 20.6344C20.8883 20.8806 20.75 21.2144 20.75 21.5625V50.4375" stroke="white" stroke-width="2" stroke-linecap="round" stroke-linejoin="round"/>
<path d="M52.25 50.4375V32.0625C52.25 31.7144 52.1117 31.3806 51.8656 31.1344C51.6194 30.8883 51.2856 30.75 50.9375 30.75H39.125" stroke="white" stroke-width="2" stroke-linecap="round" stroke-linejoin="round"/>
<path d="M26 26.8125H31.25" stroke="white" stroke-width="2" stroke-linecap="round" stroke-linejoin="round"/>
<path d="M28.625 37.3125H33.875" stroke="white" stroke-width="2" stroke-linecap="round" stroke-linejoin="round"/>
<path d="M26 43.875H31.25" stroke="white" stroke-width="2" stroke-linecap="round" stroke-linejoin="round"/>
<path d="M44.375 43.875H47" stroke="white" stroke-width="2" stroke-linecap="round" stroke-linejoin="round"/>
<path d="M44.375 37.3125H47" stroke="white" stroke-width="2" stroke-linecap="round" stroke-linejoin="round"/>
</svg>
