<svg width="73" height="72" viewBox="0 0 73 72" fill="none" xmlns="http://www.w3.org/2000/svg">
<circle cx="36.5" cy="36" r="36" fill="#40DDB6"/>
<path d="M28 19.5H22C21.1716 19.5 20.5 20.1716 20.5 21V51C20.5 51.8284 21.1716 52.5 22 52.5H28C28.8284 52.5 29.5 51.8284 29.5 51V21C29.5 20.1716 28.8284 19.5 28 19.5Z" stroke="white" stroke-width="2" stroke-linecap="round" stroke-linejoin="round"/>
<path d="M20.5 27H29.5" stroke="white" stroke-width="2" stroke-linecap="round" stroke-linejoin="round"/>
<path d="M37 19.5H31C30.1716 19.5 29.5 20.1716 29.5 21V51C29.5 51.8284 30.1716 52.5 31 52.5H37C37.8284 52.5 38.5 51.8284 38.5 51V21C38.5 20.1716 37.8284 19.5 37 19.5Z" stroke="white" stroke-width="2" stroke-linecap="round" stroke-linejoin="round"/>
<path d="M29.5 45H38.5" stroke="white" stroke-width="2" stroke-linecap="round" stroke-linejoin="round"/>
<path d="M45.9127 19.009L40.0927 20.569C39.2891 20.7844 38.8123 21.6104 39.0277 22.414L46.8277 51.514C47.0431 52.3176 47.8691 52.7944 48.6727 52.579L54.4927 51.019C55.2963 50.8036 55.7731 49.9776 55.5577 49.174L47.7577 20.074C47.5423 19.2704 46.7163 18.7936 45.9127 19.009Z" stroke="white" stroke-width="2" stroke-linecap="round" stroke-linejoin="round"/>
<path d="M45.0996 45.6001L53.7996 43.2563" stroke="white" stroke-width="2" stroke-linecap="round" stroke-linejoin="round"/>
<path d="M40.4502 28.2L49.1502 25.875" stroke="white" stroke-width="2" stroke-linecap="round" stroke-linejoin="round"/>
</svg>
